<svg xmlns="http://www.w3.org/2000/svg" viewBox="0 0 32 32" width="32" height="32">
  <rect width="32" height="32" rx="8" fill="#1A2332"/>
  <!-- Brain/memory shape (stylized R with neural node) -->
  <!-- Left hemisphere -->
  <path d="M8 22 C8 22 6 20 6 16 C6 11 10 8 14 8 C14 8 12 10 12 13" stroke="#E67E22" stroke-width="2" fill="none" stroke-linecap="round"/>
  <!-- Right hemisphere -->
  <path d="M24 22 C24 22 26 20 26 16 C26 11 22 8 18 8 C18 8 20 10 20 13" stroke="#E67E22" stroke-width="2" fill="none" stroke-linecap="round"/>
  <!-- Center connection -->
  <path d="M12 13 C12 16 14 18 16 18 C18 18 20 16 20 13" stroke="#E67E22" stroke-width="2" fill="none" stroke-linecap="round"/>
  <!-- Neural nodes -->
  <circle cx="16" cy="13" r="2" fill="#E67E22"/>
  <circle cx="10" cy="18" r="1.5" fill="#E67E22" opacity="0.7"/>
  <circle cx="22" cy="18" r="1.5" fill="#E67E22" opacity="0.7"/>
  <!-- Bottom stem -->
  <line x1="16" y1="18" x2="16" y2="24" stroke="#E67E22" stroke-width="2" stroke-linecap="round"/>
  <line x1="12" y1="24" x2="20" y2="24" stroke="#E67E22" stroke-width="2" stroke-linecap="round"/>
</svg>
