<?xml version="1.0" encoding="utf-8" ?><svg xmlns="http://www.w3.org/2000/svg" xmlns:xlink="http://www.w3.org/1999/xlink" width="1024" height="1024" viewBox="0 0 1024 1024"><path fill="#ffffff" d="M505.54 412.222C571.276 410.137 627.022 443.52 679.538 479.607L708.207 499.188C711.36 501.324 721.838 508.64 724.612 509.592C732.193 512.191 740.224 509.179 749.43 511.852L750.176 512.072C742.15 513.947 732.916 511.712 725.618 513.799C721.739 514.908 714.213 521.013 710.411 523.596C652.98 562.611 590.864 609.095 518.625 611.529C446.786 613.843 386.294 573.299 329.662 534.033C320.202 527.474 309.752 520.162 299.877 514.191C299.301 513.842 293.383 515.803 292.503 515.474C289.074 514.192 280.365 513.417 277.649 512.316L277.467 511.523C281.528 509.319 295.432 512.977 302.236 508.586C306.729 505.687 311.816 502.231 316.331 499.118L340.361 482.673C393.782 446.51 439.645 416.419 505.54 412.222Z"/><path fill="#ffffff" d="M516.684 465.78C518.159 465.954 518.615 466.146 520.015 466.584C521.302 467.71 522.153 469.6 522.089 471.273C521.55 485.287 522.154 496.428 524.01 510.269C524.312 508.287 523.872 507.772 524.995 506.738C525.415 510.426 526.693 515.09 524.068 516.212C523.863 516.3 522.382 517.831 522.385 518.049C522.484 524.673 521.254 538.014 522.41 543.9C523.37 542.322 523.729 540.207 526.018 539.919C525.885 542.537 524.199 543.163 524.252 546.142C520.837 550.297 521.839 554.3 521.99 559.875C522.019 563.899 522.038 567.928 522.072 571.952C522.099 575.19 521.795 576.906 518.591 578.07C516.693 577.76 516.764 577.675 515.371 576.459C514.81 571.558 515.034 563.465 515.059 558.328L515.173 529.756L515.206 490.646C515.217 485.529 514.488 469.618 516.684 465.78Z"/><path fill="#ffffff" d="M502.695 557.131C501.923 553.427 502.385 521.837 502.406 515.502L502.53 472.405C502.511 466.035 501.408 453.876 503.365 447.468C503.666 446.482 504.631 446.253 505.563 446.057C507.033 446.562 507.582 446.621 508.671 447.752C509.461 451.867 509.024 477.028 509.033 483.122C509.07 506.515 508.989 530.272 509.009 553.704C509.01 554.987 508.975 556.167 508.243 557.221C507.692 558.013 506.83 558.179 505.86 558.603C504.216 555.582 504.721 552.17 504.74 548.592L503.735 556.465L502.695 557.131Z"/><path fill="#ffffff" d="M464.865 463.032C466.795 462.962 468.054 462.732 469.821 463.492C470.801 464.792 470.798 464.742 470.83 466.71C470.937 473.349 470.85 480.13 470.847 486.765L470.718 527.452C470.631 537.099 471.499 551.97 470.365 560.915C469.113 560.999 467.421 561.266 466.209 561.039C465.57 560.92 464.842 560.703 464.548 560.076C463.398 557.624 463.77 474.89 464.144 466.514C464.202 465.199 464.37 464.24 464.865 463.032Z"/><path fill="#ffffff" d="M560.357 535.013C560.387 542.203 561.045 550.518 560.225 557.662C559.839 561.022 555.952 562.584 553.713 559.33C552.937 551.027 553.194 466.345 553.882 464.403C554.309 463.198 554.924 463.156 556.01 462.73C563.011 463.218 560.377 479.257 560.355 485.231C559.751 489.184 559.921 496.772 559.911 500.947C559.816 512.304 559.965 523.662 560.357 535.013Z"/><path fill="#ffffff" d="M529.136 479.598C531.097 479.633 531.161 479.588 533.009 480.122C533.696 480.715 534.502 481.496 534.53 482.455C534.866 493.872 533.88 505.578 534.815 516.928C534.872 517.631 535.166 517.555 535.781 517.956C537.935 512.282 535.923 509.293 535.33 504.493C537.214 502.493 536.692 501.68 536.723 498.774C536.774 501.413 536.148 502.663 538.174 504.222C538.509 507.87 537.919 511.63 538.045 515.312C538.176 519.148 536.843 522.026 536.66 525.973L536.635 526.657L535.949 527.026C536.012 524.505 536.621 523.457 535.896 520.826C533.957 523.556 535.002 541.048 533.487 543.466C531.593 544.096 531.309 543.965 529.256 543.765C528.489 543.23 528.164 543.218 528.038 542.115C527.696 537.234 527.213 528.262 527.659 523.698C528.304 517.098 526.471 483.621 529.136 479.598Z"/><path fill="#ffffff" d="M490.508 479.486C492.452 479.524 494.096 479.345 495.759 480.292C496.737 482.556 496.841 538.924 495.614 544.108C493.594 544.039 491.823 544.094 490.238 542.831C488.818 538.957 489.224 483.635 490.508 479.486Z"/><path fill="#ffffff" d="M542.465 489.876C544.521 489.958 547.466 490.007 547.491 492.631C547.605 504.936 547.711 517.314 547.285 529.609C547.233 531.131 546.626 531.404 545.68 532.467C543.514 532.391 540.699 532.265 540.792 529.394C541.016 522.464 539.07 494.246 542.465 489.876Z"/><path fill="#ffffff" d="M477.615 490.301C478.508 490.298 479.4 490.34 480.289 490.428C481.1 490.513 482.712 491.039 482.794 491.58C483.737 497.802 483.778 527.968 482.687 532.53C480.186 532.629 478.778 533.035 477.075 531.087C476.626 526.998 476.456 492.858 477.615 490.301Z"/><path fill="#ffffff" d="M453.761 497.895C456.226 498.086 455.88 497.702 457.663 498.905C459.367 502.033 458.607 518.612 458.462 523.048C458.389 525.299 457.669 525.575 456.268 526.728C454.398 526.278 454.223 526.25 452.508 525.433C450.629 522.44 451.028 501.224 453.761 497.895Z"/><path fill="#ffffff" d="M578.61 504.114C580.79 504.015 582.438 503.704 584.118 504.712C585.809 507.693 586.392 517.397 584.573 520.381C579.123 521.259 577.62 519.629 577.776 513.844C577.862 510.667 578.315 507.293 578.61 504.114Z"/><path fill="#ffffff" d="M439.996 503.9C440.725 503.889 441.454 503.889 442.183 503.9C444.229 503.951 444.854 503.931 446.029 505.19C446.823 508.507 446.956 516.9 445.666 519.909C443.375 520.069 442.495 520.245 440.288 519.805C438.074 517.439 439.16 506.931 439.996 503.9Z"/><path fill="#ffffff" d="M570.408 505.215L571.313 505.833C571.6 509.356 572.586 515.969 572.12 519.205C571.014 520.251 568.621 520.73 567.06 521.185L568.942 519.18L568.741 518.492L567.363 518.798C565.925 513.742 567.942 509.371 570.408 505.215Z"/><path fill="#ffffff" d="M567.614 497.218C569.031 497.512 570.38 497.748 571.764 498.167C571.646 500.675 571.879 504.282 568.224 503.844C565.474 501.759 566.205 499.63 567.614 497.218Z"/><path fill="#ffffff" d="M276.661 597.789C277.508 598.071 277.918 598.211 278.543 598.924C288.923 610.761 299.496 622.042 311.078 632.753C333.762 653.634 359.231 671.269 386.758 685.156C398.272 690.887 406.86 694.929 419.715 696.083C422.481 696.331 423.542 700.68 427.476 699.458C430.035 698.662 433.265 701.641 435.464 702.518C440.551 704.457 439.137 701.775 441.101 701.049L441.812 701.528C441.317 702.305 441.408 701.872 441.612 702.839L447.107 705.552C448.16 704.925 447.592 705.164 448.815 704.85C448.893 704.971 449.924 706.511 449.893 706.493C460.797 712.582 494.307 714.722 504.745 715.077C504.742 713.502 505.119 707.59 504.977 706.548C504.869 708.425 505.262 712.481 505.255 714.745L518.745 714.745C518.718 712.993 518.733 712.199 518.898 710.464C519.676 711.464 520.917 712.997 522.094 713.442C529.11 716.092 544.817 713.016 552.071 711.909C609.565 703.136 662.162 677.814 705.88 639.173C712.674 633.213 719.263 627.023 725.635 620.614C728.896 617.33 744.636 599.369 746.566 598.823L746.663 599.666C741.46 610.686 706.478 641.498 696.164 649.901C667.705 673.036 635.33 690.885 600.575 702.599C591.121 705.769 578.66 707.935 570.525 710.963C572.216 711.207 572.709 710.935 573.516 711.913C572.574 713.682 571.316 714.102 569.451 714.588L568.793 714.134L568.698 712.691L567.988 712.544L566.808 714.159C565.217 714.506 564.22 713.984 562.649 713.474L563.798 713.175L563.8 712.475C559.599 712.223 554.516 713.901 550.311 714.525C546.536 715.086 542.908 715.423 539.107 715.768C533.558 716.308 527.996 716.692 522.426 716.919C518.394 717.051 508.765 716.957 505.565 717.725C502.72 723.505 505.591 804.05 504.587 817.422L504.115 817.484C504.743 797.473 503.896 776.06 504.278 755.936C504.383 750.407 504.609 725.104 503.605 720.839C496.675 716.417 485.129 715.72 477.25 714.765C470.145 713.931 463.089 712.722 456.112 711.143C446.233 708.925 433.402 704.482 423.255 703.915C419.923 703.729 418.374 702.843 415.51 701.48C415.318 698.896 412.33 698.453 409.909 697.505C392.977 690.876 376.873 682.739 361.329 673.321C360.783 673.735 360.841 674.312 360.578 675.285C359.291 675.559 359.971 675.553 358.445 674.64C357.67 672.113 359.921 672.324 358.163 671.232C345.97 663.655 331.593 653.223 320.788 643.935C312.529 636.835 278.701 606.254 276.661 597.789Z"/><path fill="#ffffff" d="M503.884 306.713C525.393 306.029 545.724 309.067 567.055 310.663C571.587 311.002 576.289 312.915 580.665 313.435L581.183 312.239C586.377 319.126 604.254 317.634 605.802 321.665L604.564 322.025C603.955 321.469 635.604 335.011 639.05 336.711C674.838 354.357 705.351 378.585 732.652 407.551C737.699 412.905 745.723 421.2 748.933 427.449C744.877 424.502 739.489 418.223 735.879 414.397C729.366 407.495 723.273 400.724 716.405 394.149C681.635 360.866 649.823 341.608 605.365 324.552C605.232 325.067 605.267 325.524 605.293 326.053C602.33 327.528 593.968 322.741 590.233 322.41L590.012 322.082L592.725 320.7C571.01 313.909 541.629 308.521 519.054 309.587L518.88 310.491C519.722 312.088 520.839 312.92 522.168 314.15C520.502 314.254 521.065 314.013 519.737 314.799L519.755 321.001L519.498 321.783C515.52 315.99 525.541 305.993 506.833 309.642C503.092 312.594 506.59 318.455 505.124 323.211C501.875 319.662 509.639 309.162 500.321 309.115C489.529 309.062 478.294 310.638 467.663 312.448C413.638 321.546 363.196 345.456 321.953 381.519C312.529 389.64 303.521 398.231 294.962 407.26C290.986 411.477 281.603 422.232 277.406 425.551L276.869 425.285C277.565 422.318 281.591 418.472 283.718 416.122C343.182 350.439 414.248 310.385 503.884 306.713Z"/><path fill="#ffffff" d="M277.031 556.762C277.855 557.001 278.237 557.174 278.863 557.825C291.153 570.61 303.597 582.752 316.853 594.565C331.539 607.867 347.206 620.042 363.722 630.989C463.189 696.251 572.215 692.581 669.328 625.218C681.046 617.089 692.551 607.678 703.324 598.374C712.847 590.165 722.072 581.617 730.981 572.746C733.802 569.915 743.608 558.467 746.628 557.839C746.608 560.563 733.23 573.412 730.744 575.929C715.736 590.526 699.99 604.343 683.566 617.326C677.428 622.176 669.999 626.361 663.96 631.39C662.925 632.252 660.713 636.393 659.678 637.897L658.581 636.444C656.218 637.436 653.777 638.408 651.442 639.451C645.096 642.285 639.288 646.381 633.076 649.516C617.324 657.558 600.918 664.249 584.034 669.517C576.04 671.996 568 673.342 560.138 676.216C556.921 677.392 557.278 677.979 554.801 680.273C554.549 678.956 554.575 679.044 553.808 677.94L550.656 678.366L550.667 677.42C549.111 677.003 538.288 678.599 535.87 678.774C525.699 679.509 515.46 680.533 505.255 680.255C505.288 683.292 505.289 685.546 505.069 688.59C504.597 687.761 504.749 681.103 504.745 679.587C499.271 679.624 494.65 678.891 489.295 678.667C488.596 678.638 483.234 679.85 481.786 680.086C477.475 678.031 475.705 679.291 472.503 677.84C466.121 674.949 459.534 674.452 452.799 672.792C446.404 671.217 440.148 669.343 433.883 667.336C414.347 661.829 397.914 652.034 379.907 643.513C374.44 644.115 374.362 643.965 369.882 640.677C368 639.295 366.257 638.244 364.522 636.548L364.899 635.749C365.204 635.722 366.007 635.471 366.34 635.379C364.348 633.679 362.169 632.246 359.961 630.842C350.27 624.683 341.409 617.875 332.506 610.629C325.035 604.547 317.734 598.257 310.613 591.768C307.432 588.877 304.404 585.833 301.229 582.942C298.422 580.387 292.602 583.119 290.651 580.388L291.161 579.148C291.472 580.229 291.259 579.716 291.796 580.687C293.477 580.89 293.945 581.081 295.516 580.405C297.2 575.385 279.893 565.391 277.031 556.762Z"/><path fill="#ffffff" d="M274.448 520.124C278.13 520.723 277.784 519.349 281.331 522.496C312.17 549.861 342.958 577.412 378.216 599.072C386.949 604.437 395.444 609.867 405.343 612.869C405.345 612.87 408.235 612.186 408.509 612.121C410.226 612.74 409.472 614.5 411.5 617.238C419.472 622.159 444.428 630.518 454.498 633.02C455.262 633.21 458.362 632.923 459.33 632.823L459.648 631.86L458.652 630.797L459.765 630.649L460.043 632.501C462.247 635.388 467.254 633.707 470.348 634.897C473.737 636.241 476.398 637.968 480.126 638.569C561.853 651.747 635.285 612.642 696.864 562.75C707.32 554.184 717.588 545.39 727.66 536.376C733.533 531.072 741.824 522.356 748.389 518.307C745.556 522.907 744.032 524.335 740.029 527.786C729.382 538.428 713.161 552.015 701.277 561.707C649.577 603.876 596.427 636.193 528.955 642.435L529.004 642.742L533.687 643.729L533.531 644.072C529.049 644.167 525.152 645.401 520.645 645.088C522.544 643.298 526.407 644.026 527.809 642.77C527.201 642.313 516.762 643.037 515.072 643.062C423.649 644.412 348.938 586.763 284.608 528.244C283.893 527.594 277.43 529.198 276.697 523.968C276.554 522.953 275.407 521.321 274.731 520.473L274.448 520.124Z"/><path fill="#ffffff" d="M504.745 374.466C506.077 376.253 504.681 377.238 505.885 379.906C509.09 381.444 526.516 381.048 531.764 381.484C539.054 382.161 546.305 383.197 553.492 384.588C617.004 397.24 669.598 434.754 717.881 476.072C726.042 483.056 743.279 497.338 748.802 505.612C740.51 499.752 726.239 486.153 718.205 479.067C701.054 464.014 683.096 449.907 664.41 436.81C657.57 432.025 648.66 425.782 641.28 422.074C636.098 423.049 634.688 422.644 630.94 418.35L631.024 417.684L633.198 417.449C631.794 415.71 624.482 412.164 622.053 410.968C593.5 396.905 562.197 385.568 530.191 383.751C526.024 383.514 521.69 384.287 517.55 383.786C516.158 383.617 515.859 383.603 514.422 383.711C512.979 383.239 512.22 383.356 510.714 383.428L509.941 383.47C507.05 383.604 505.089 384.906 504.742 387.889C505.024 386.85 504.796 384.137 504.745 382.897C499.827 383.047 494.916 383.382 490.023 383.902C471.03 385.852 452.951 390.285 435.07 396.872C428.693 399.221 419.255 401.985 414.656 407.448C413.626 408.671 413.861 408.799 412.395 409.668C403.775 409.113 400.753 411.63 393.406 415.747C360.224 434.341 329.915 458.135 301.482 483.301C295.425 488.662 287.745 494.923 282.445 500.855L282.912 501.159C283.033 501.997 282.961 502.36 282.857 503.195C284.344 504.279 285.968 504.032 288.17 504.311L288.104 504.803C285.696 504.781 278.794 505.243 277.454 503.508C278.84 500.754 283.636 496.715 286.04 494.522C342.599 442.937 406.774 392.525 485.059 382.268C488.97 381.755 501.404 381.597 504.085 379.724C505.106 378.105 504.806 376.417 504.745 374.466Z"/><path fill="#ffffff" d="M501.692 343.709C505.12 343.468 509.345 343.508 512.818 343.513C527.293 343.632 541.735 344.886 556.014 347.264C560.613 348.04 565.25 349.36 569.904 350.178C572.74 350.676 580.589 350.393 582.441 351.094C587.871 353.15 593.389 356.794 599.006 358.957C610.105 363.232 620.609 367.757 631.196 373.207C669.353 392.852 702.564 419.73 732.779 450.003C735.542 452.771 746.866 463.398 746.863 466.209L746.033 466.218L727.619 447.841C665.683 387.012 596.536 344.768 507.477 345.605C502.221 349.379 507.364 355.496 505.17 360.037L504.642 360.095C504.682 356.933 506.257 345.679 501.645 345.975C492.387 346.569 464.571 347.953 457.936 353.258L457.803 355.214C457.17 355.074 451.715 353.831 451.343 353.847C444.619 354.138 431.566 359.024 425.357 361.307C380.657 377.741 341.526 405.903 306.866 438.111C300.485 443.869 294.624 450.159 288.556 456.232C284.575 460.217 280.255 465.09 275.651 468.3C282.132 456.598 312.845 429.933 323.398 420.805C375.707 375.557 432.134 348.224 501.692 343.709Z"/></svg>